<?xml version="1.0" encoding="UTF-8"?>
<svg id="Layer_1" xmlns="http://www.w3.org/2000/svg" version="1.1" viewBox="0 0 936.8 186">
  <!-- Generator: Adobe Illustrator 30.5.1, SVG Export Plug-In . SVG Version: 2.1.4 Build 3)  -->
  <defs>
    <style>
      .st0, .st1, .st2 {
        fill: #fff;
      }

      .st1 {
        fill-rule: evenodd;
      }

      .st2 {
        isolation: isolate;
        opacity: .5;
      }
    </style>
  </defs>
  <g>
    <path class="st0" d="M384.4,32.9l-1.1,4.2c-8.3,1.8-14.9,7.9-20,18.3l-62.8,127.3h-3.4l-15.1-95.8-56.9,95.8h-3.4l-16.6-132.2c-1.1-8.7-5-13.2-11.6-13.4l.8-4.2c5.6.4,12.5.6,20.8.6s17.7-.2,22.7-.6l-.8,4.2c-4.3.3-7.5,1.3-9.4,2.9-1.9,1.7-2.8,4.8-2.8,9.2s.1,2.7.4,5.5l11.8,100.2,43.9-74.6-4.6-29.8c-1.4-8.7-4.6-13.2-9.5-13.4l.8-4.2c5,.4,11.3.6,18.7.6,12,0,21-.2,26.9-.6l-.8,4.2c-6.3.3-10.6,1.1-13,2.5-2.4,1.4-3.6,4.2-3.6,8.4s.2,4.2.6,6.7l15.1,95.6,41-83.4c4.6-9.5,6.9-16.3,6.9-20.4s-1.3-5.9-3.9-7.2c-2.6-1.3-6.7-2.1-12.3-2.2l1.1-4.2c7.8.4,15.8.6,24,.6s11.5-.2,16-.6Z"/>
    <path class="st0" d="M461.9,147.6l-5.3,15.3c-5,14.4-13.5,21.6-25.4,21.6s-14.7-4.3-14.7-13,1.1-9.7,3.4-16.4l20-60.1c1.4-3.9,2.1-7.4,2.1-10.5,0-4.8-2.2-7.1-6.7-7.1s-10.8,3.3-16.7,9.8c-6,6.5-11.9,15.7-18,27.4-6,11.8-11.6,25.4-16.8,41l-7.6,26.1h-18.3l41.6-140.2c.7-2.4,1.1-4.3,1.1-5.7,0-2.8-1.1-4.9-3.4-6.2-2.2-1.3-6-2-11.1-2l1.3-4.4c14.6-.1,27.2-3,37.8-8.6l-30.5,104.2c7.6-17.1,15.1-29.4,22.7-36.9,7.6-7.5,15.8-11.2,24.8-11.2s17,5.3,17,16-1.1,9.7-3.2,15.8l-20.4,61.4c-1.1,3.4-1.7,6-1.7,8,0,3.4,1.7,5,5,5s5.5-1.6,8.1-4.7c2.6-3.2,5.3-8.7,8.1-16.7l2.7-7.8h4Z"/>
    <path class="st0" d="M535.5,114.4c-12.8,8.5-27.3,15.5-43.7,20.8-1.5,7-2.3,13.8-2.3,20.4,0,13.4,4.8,20.2,14.5,20.2s22.8-7,32.4-21l3.4,1.7c-4.5,7.7-10.5,14.3-18.2,19.9-7.6,5.5-15.7,8.3-24.1,8.3s-15.5-2.5-20.4-7.6c-4.9-5-7.4-12.4-7.4-22.1s3.1-22.7,9.4-36c6.2-13.4,14.7-24.8,25.3-34.1,10.6-9.4,22.2-14.1,34.7-14.1s8.2,1.2,11.1,3.6c2.9,2.4,4.4,5.8,4.4,10.3,0,11.3-6.4,21.3-19.1,29.8ZM519.4,82.6c-5.5,5.3-10.7,12.2-15.6,20.9-4.8,8.7-8.5,17.9-11,27.7,13.3-4.6,22.8-9.1,28.6-13.4,5.2-4.1,9.2-9,12.1-14.8,2.9-5.8,4.3-12.1,4.3-18.8s-.3-6.3-.8-7.6c-.6-1.3-1.4-1.9-2.5-1.9-4.5,0-9.5,2.6-15,7.9Z"/>
    <path class="st0" d="M644.1,74.1c2.2,2.2,3.4,5.1,3.4,8.6s-1.5,7.8-4.4,10.7c-2.9,2.9-6.4,4.4-10.3,4.4s-4.6-.7-6.1-2c-1.5-1.3-2.3-3.2-2.3-5.6s.8-6,2.5-8.2c1.7-2.2,4-4,6.9-5.3-.6-.6-1.3-.8-2.3-.8-7.6,0-15.8,8.2-24.7,24.5-8.9,16.3-17.3,37.9-25.1,64.6l-4.2,16.6h-18.3l25.2-90.2c1-3.1,1.5-5.8,1.5-8.2s-1.5-4.8-4.4-4.8-5.9,1.6-8.5,4.9c-2.6,3.3-5.2,8.8-7.9,16.5l-2.7,7.8h-4l5.3-15.3c5-14.4,13.5-21.6,25.4-21.6s12,4.1,12,12.2-1,9.7-2.9,17.2l-6.7,26.5c7.6-20.3,14.7-34.7,21.3-43.2,6.7-8.5,14.1-12.7,22.4-12.7s6.8,1.1,9,3.4Z"/>
    <path class="st0" d="M700.4,114.4c-12.8,8.5-27.3,15.5-43.7,20.8-1.5,7-2.3,13.8-2.3,20.4,0,13.4,4.8,20.2,14.5,20.2s22.8-7,32.4-21l3.4,1.7c-4.5,7.7-10.5,14.3-18.2,19.9-7.6,5.5-15.7,8.3-24.1,8.3s-15.5-2.5-20.4-7.6c-4.9-5-7.4-12.4-7.4-22.1s3.1-22.7,9.4-36c6.2-13.4,14.7-24.8,25.3-34.1,10.6-9.4,22.2-14.1,34.7-14.1s8.2,1.2,11.1,3.6c2.9,2.4,4.4,5.8,4.4,10.3,0,11.3-6.4,21.3-19.1,29.8ZM684.3,82.6c-5.5,5.3-10.7,12.2-15.6,20.9-4.8,8.7-8.5,17.9-11,27.7,13.3-4.6,22.8-9.1,28.6-13.4,5.2-4.1,9.2-9,12.1-14.8,2.9-5.8,4.3-12.1,4.3-18.8s-.3-6.3-.8-7.6c-.6-1.3-1.4-1.9-2.5-1.9-4.5,0-9.5,2.6-15,7.9Z"/>
    <path class="st0" d="M892.9,5.7c2.9,2.9,4.4,6.3,4.4,10.4,0,8.5-4.8,15.2-14.5,20-8.5,4.1-20.2,6.1-35.1,6.1s-6.6-.1-12.2-.4l-30.9,115.6c-1.1,4.2-1.7,7.4-1.7,9.7,0,3.6,1.3,6.2,3.9,7.8,2.6,1.5,7.1,2.5,13.6,2.7l-.8,4.2c-8.8-.4-21.8-.6-38.9-.6s-29,.2-37,.6l.8-4.2c6-.3,10.7-1,14-2.2,3.3-1.2,5.9-3.2,7.8-5.9,1.9-2.7,3.5-6.8,4.9-12.1l31.7-118.7c-10.5-1-18.9-1.5-25.2-1.5-11.6,0-19.5,1.2-23.7,3.6,3.6,1.1,6.7,3.2,9,6.2,2.4,3,3.6,6.6,3.6,10.8s-1.5,9.1-4.6,12.5c-3.1,3.4-7,5.1-11.8,5.1s-8.3-1.6-11-4.7c-2.7-3.2-4.1-7.1-4.1-11.9s1.1-7.7,3.3-11.3c2.2-3.6,5.6-6.7,10.4-9,6.9-3.4,16.2-5,28.2-5s22.3.8,39.1,2.5c15.4,1.4,26.6,2.1,33.6,2.1s16.8-.9,22.3-2.7c-2.1-2-3.9-4.4-5.3-7.2-1.4-2.9-2.1-6-2.1-9.4,0-5,1.5-9.2,4.5-12.4,3-3.2,7-4.8,12.1-4.8s8.8,1.4,11.8,4.3Z"/>
    <path class="st0" d="M842.6,114c5.3-12.5,13-22.9,23.3-31.3,10.3-8.4,22.6-12.6,36.9-12.6s19.3,3,25.2,8.9c5.9,6,8.8,14.5,8.8,25.7s-2.6,23.5-7.9,35.9c-5.3,12.5-13,22.9-23.3,31.3-10.3,8.4-22.6,12.6-36.9,12.6s-19.3-3-25.2-8.9c-5.9-6-8.8-14.5-8.8-25.7s2.6-23.5,7.9-35.9ZM884.7,89.2c-6.2,9.9-11.3,22.1-15.6,36.6-4.2,14.4-6.3,27.9-6.3,40.3s.6,8.7,1.7,10.9c1.1,2.2,2.9,3.4,5.5,3.4,5.2,0,10.8-4.8,16.9-14.5s11.2-21.7,15.4-36c4.2-14.4,6.3-28,6.3-40.9s-.6-9.3-1.7-11.5c-1.1-2.2-2.9-3.3-5.3-3.3-5.2,0-10.9,5-17,14.9Z"/>
  </g>
  <g id="Generative_Object__x28_0_x2C__0_x29_">
    <path class="st1" d="M127.7,2.2c2.4-2.7,6.5-2.9,9.2-.5,20.3,18.1,31.9,44.1,31.9,71.3,0,49.7-38,90.6-86.5,95.3v4.8h10.8c3.6,0,6.5,2.9,6.5,6.5s-2.9,6.5-6.5,6.5h-34.6c-3.6,0-6.5-2.9-6.5-6.5s2.9-6.5,6.5-6.5h10.8v-4.4c-25.9-1-50.3-12.5-67.6-31.8-2.4-2.7-2.2-6.8.5-9.2,2.7-2.4,6.8-2.2,9.2.5,0,0,0,0,0,0,15.7,17.6,38.1,27.6,61.7,27.6,45.7,0,82.7-37,82.7-82.7,0-23.5-10-46-27.6-61.7-2.7-2.4-2.9-6.5-.5-9.2,0,0,0,0,0,0"/>
    <g>
      <path class="st2" d="M33.2,127.6c-3.5-2.9-5.6-7.4-6.1-13-.4-5,.5-10.8,2.5-17.4,2-6.3,5.1-13.1,9.1-20,3.4-5.8,7.1-11.4,11.2-16.7l-25.4-20.8c-2-1.6-2.3-4.6-.6-6.6s4.6-2.3,6.6-.6l25.4,20.8c4.5-5.2,9.3-10,14.1-14.2,6.1-5.3,12.1-9.6,17.9-12.8s11.6-5.3,16.6-5.9c11.2-1.3,19.1,5.2,20,16.4.4,5-.4,10.8-2.5,17.4-2,6.3-5.1,13.1-9.1,20-3.2,5.6-7,11.2-11.2,16.7l25.4,20.8c2,1.6,2.3,4.6.6,6.6s-4.6,2.3-6.6.6l-25.4-20.8c-4.5,5.2-9.3,10-14.2,14.2-6,5.3-12,9.6-17.9,12.8-6,3.3-11.6,5.3-16.6,5.9-5.6.6-10.4-.5-13.9-3.4ZM57.1,66.5c-3.8,4.9-7.2,10.1-10.3,15.4-3.7,6.4-6.5,12.5-8.2,18.2-1.7,5.3-2.4,10.1-2.1,13.8.5,6.1,3.5,8.6,9.6,7.9,3.7-.4,8.2-2.1,13.1-4.8,5.2-2.9,10.7-6.8,16.2-11.6,4.5-4,8.9-8.4,13.1-13.1l-31.3-25.7ZM63.1,59.2l31.3,25.7c3.9-5,7.4-10.2,10.3-15.4,3.7-6.4,6.5-12.5,8.3-18.2,1.7-5.3,2.4-10.1,2.1-13.8-.5-6.1-3.5-8.6-9.6-7.9-3.7.4-8.2,2.1-13.1,4.8-5.2,2.9-10.7,6.8-16.2,11.6-4.5,3.9-8.9,8.3-13.1,13.1Z"/>
      <path class="st0" d="M75.7,142.8c-37,0-67.1-30.1-67.1-67.1S38.7,8.5,75.7,8.5s67.1,30.1,67.1,67.1-30.1,67.1-67.1,67.1ZM75.7,17.9c-31.9,0-57.8,25.9-57.8,57.8s25.9,57.8,57.8,57.8,57.8-25.9,57.8-57.8-25.9-57.8-57.8-57.8Z"/>
    </g>
  </g>
</svg>