<svg xmlns="http://www.w3.org/2000/svg" viewBox="-62 -56 300 300" role="img" aria-label="WhereTo">
  <rect x="-62" y="-56" width="300" height="300" fill="#1F3A4D"/>
  <path fill="#FFFFFF" d="M127.7,2.2c2.4-2.7,6.5-2.9,9.2-.5,20.3,18.1,31.9,44.1,31.9,71.3,0,49.7-38,90.6-86.5,95.3v4.8h10.8c3.6,0,6.5,2.9,6.5,6.5s-2.9,6.5-6.5,6.5h-34.6c-3.6,0-6.5-2.9-6.5-6.5s2.9-6.5,6.5-6.5h10.8v-4.4c-25.9-1-50.3-12.5-67.6-31.8-2.4-2.7-2.2-6.8.5-9.2,2.7-2.4,6.8-2.2,9.2.5,0,0,0,0,0,0,15.7,17.6,38.1,27.6,61.7,27.6,45.7,0,82.7-37,82.7-82.7,0-23.5-10-46-27.6-61.7-2.7-2.4-2.9-6.5-.5-9.2,0,0,0,0,0,0"/>
  <path fill="#FFFFFF" opacity="0.5" d="M33.2,127.6c-3.5-2.9-5.6-7.4-6.1-13-.4-5,.5-10.8,2.5-17.4,2-6.3,5.1-13.1,9.1-20,3.4-5.8,7.1-11.4,11.2-16.7l-25.4-20.8c-2-1.6-2.3-4.6-.6-6.6s4.6-2.3,6.6-.6l25.4,20.8c4.5-5.2,9.3-10,14.1-14.2,6.1-5.3,12.1-9.6,17.9-12.8s11.6-5.3,16.6-5.9c11.2-1.3,19.1,5.2,20,16.4.4,5-.4,10.8-2.5,17.4-2,6.3-5.1,13.1-9.1,20-3.2,5.6-7,11.2-11.2,16.7l25.4,20.8c2,1.6,2.3,4.6.6,6.6s-4.6,2.3-6.6.6l-25.4-20.8c-4.5,5.2-9.3,10-14.2,14.2-6,5.3-12,9.6-17.9,12.8-6,3.3-11.6,5.3-16.6,5.9-5.6.6-10.4-.5-13.9-3.4ZM57.1,66.5c-3.8,4.9-7.2,10.1-10.3,15.4-3.7,6.4-6.5,12.5-8.2,18.2-1.7,5.3-2.4,10.1-2.1,13.8.5,6.1,3.5,8.6,9.6,7.9,3.7-.4,8.2-2.1,13.1-4.8,5.2-2.9,10.7-6.8,16.2-11.6,4.5-4,8.9-8.4,13.1-13.1l-31.3-25.7ZM63.1,59.2l31.3,25.7c3.9-5,7.4-10.2,10.3-15.4,3.7-6.4,6.5-12.5,8.3-18.2,1.7-5.3,2.4-10.1,2.1-13.8-.5-6.1-3.5-8.6-9.6-7.9-3.7.4-8.2,2.1-13.1,4.8-5.2,2.9-10.7,6.8-16.2,11.6-4.5,3.9-8.9,8.3-13.1,13.1Z"/>
  <path fill="#FFFFFF" d="M75.7,142.8c-37,0-67.1-30.1-67.1-67.1S38.7,8.5,75.7,8.5s67.1,30.1,67.1,67.1-30.1,67.1-67.1,67.1ZM75.7,17.9c-31.9,0-57.8,25.9-57.8,57.8s25.9,57.8,57.8,57.8,57.8-25.9,57.8-57.8-25.9-57.8-57.8-57.8Z"/>
</svg>
